<?xml version="1.0" standalone="no"?><!-- Generator: Gravit.io --><svg xmlns="http://www.w3.org/2000/svg" xmlns:xlink="http://www.w3.org/1999/xlink" style="isolation:isolate" viewBox="0 0 425.197 425.197" width="425.197" height="425.197"><defs><clipPath id="_clipPath_LtKKEp2w1JD5z853x0MwHKgRKPvoq8s6"><rect width="425.197" height="425.197"/></clipPath></defs><g clip-path="url(#_clipPath_LtKKEp2w1JD5z853x0MwHKgRKPvoq8s6)"><path d=" M 345.472 0 L 79.724 0 C 35.698 0.009 0.009 35.698 0 79.724 L 0 345.472 C 0.009 389.499 35.698 425.188 79.724 425.197 L 345.472 425.197 C 389.499 425.188 425.188 389.499 425.197 345.472 L 425.197 79.724 C 425.188 35.698 389.499 0.009 345.472 0 L 345.472 0 Z  M 131.468 360.927 L 65.415 360.927 L 65.039 163.161 L 131.091 163.161 L 131.468 360.927 Z  M 96.781 137.29 L 96.405 137.29 C 74.818 137.29 60.885 122.408 60.885 103.879 C 60.885 84.909 75.26 70.517 97.223 70.517 C 119.202 70.517 132.678 84.909 133.136 103.879 C 133.136 122.391 119.137 137.29 96.781 137.29 Z  M 360.485 360.927 L 293.86 360.927 L 293.86 253.483 C 293.86 227.48 286.959 209.786 263.704 209.786 C 245.944 209.786 236.36 221.724 231.765 233.302 C 230.031 237.456 229.59 243.131 229.59 248.953 L 229.59 360.927 L 162.638 360.927 L 162.262 163.161 L 229.214 163.161 L 229.59 191.077 C 238.159 177.847 252.403 159.122 286.501 159.122 C 328.792 159.122 360.42 186.727 360.42 246.075 L 360.42 360.927 L 360.485 360.927 Z " fill="rgb(0,0,0)"/></g></svg>