<?xml version="1.0" standalone="no"?><!-- Generator: Gravit.io --><svg xmlns="http://www.w3.org/2000/svg" xmlns:xlink="http://www.w3.org/1999/xlink" style="isolation:isolate" viewBox="0 0 425.197 425.197" width="425.197" height="425.197"><defs><clipPath id="_clipPath_2IFEQx9L0qI72ScE4haqViW4TLYZey5l"><rect width="425.197" height="425.197"/></clipPath></defs><g clip-path="url(#_clipPath_2IFEQx9L0qI72ScE4haqViW4TLYZey5l)"><path d=" M 425.197 50.423 C 409.578 58.968 392.746 64.733 375.1 67.35 C 393.306 53.91 406.931 32.802 413.45 7.941 C 396.32 20.445 377.579 29.254 358.036 33.986 C 331.026 -1.511 287.996 -10.237 253.156 12.718 C 218.316 35.673 200.367 84.575 209.408 131.911 C 139.252 127.559 73.897 86.762 29.609 19.675 C 21.837 36.089 17.759 54.753 17.795 73.749 C 17.795 110.956 33.182 143.789 56.61 163.027 C 42.75 162.52 29.193 157.92 17.081 149.616 L 17.081 150.965 C 17.089 202.054 46.339 246.07 87.033 256.229 C 79.55 258.738 71.826 259.996 64.07 259.971 C 58.421 259.971 52.971 259.337 47.654 258.049 C 59.064 301.758 91.798 331.706 129.104 332.566 C 98.219 362.43 60.051 378.607 20.77 378.483 C 13.708 378.483 6.812 378.013 0 377.052 C 39.888 408.561 86.306 425.274 133.707 425.197 C 294.165 425.197 381.913 261.647 381.913 119.911 C 381.913 115.209 381.846 110.568 381.647 105.927 C 398.769 90.813 413.523 72.008 425.197 50.423 Z " fill="rgb(0,0,0)"/></g></svg>