<?xml version="1.0" standalone="no"?><!-- Generator: Gravit.io --><svg xmlns="http://www.w3.org/2000/svg" xmlns:xlink="http://www.w3.org/1999/xlink" style="isolation:isolate" viewBox="0 0 425.197 425.197" width="425.197" height="425.197"><defs><clipPath id="_clipPath_FFGebFQ5QOIrUZxSfNUjvkbP4XUTBO0L"><rect width="425.197" height="425.197"/></clipPath></defs><g clip-path="url(#_clipPath_FFGebFQ5QOIrUZxSfNUjvkbP4XUTBO0L)"><g id="Group"><path d=" M 33.823 425.197 L 391.374 425.197 C 410.053 425.197 425.196 405.006 425.196 380.1 L 425.196 45.097 C 425.196 20.191 410.053 0.001 391.374 0.001 L 33.823 0.001 C 15.143 0.001 0.001 20.191 0.001 45.097 L 0.001 380.1 C 0.001 405.006 15.143 425.197 33.823 425.197 Z " fill="rgb(224,224,224)"/><path d=" M 231.925 425.197 L 391.374 425.197 C 410.053 425.197 425.196 405.006 425.196 380.1 L 425.196 45.097 C 425.196 20.191 410.053 0.001 391.374 0.001 L 33.823 0.001 C 15.143 0.001 0.001 20.191 0.001 45.097 L 231.925 425.197 Z " fill="rgb(217,217,217)"/><path d=" M 45.864 425.197 L 391.374 425.197 C 410.053 425.197 425.196 405.006 425.196 380.1 L 425.196 51.54 L 45.864 425.197 Z " fill="rgb(238,238,238)"/><path d=" M 229.471 425.197 L 391.374 425.197 C 410.053 425.197 425.196 405.006 425.196 380.1 L 425.196 51.54 L 162.058 310.742 L 229.471 425.197 Z " fill="rgb(224,224,224)"/><path d=" M 391.374 25.77 L 33.823 25.77 C 15.134 25.77 0.001 20.178 0.001 45.097 L 0.001 380.1 C 0.001 405.006 15.143 425.197 33.823 425.197 L 48.318 425.197 L 48.318 57.982 L 376.879 57.982 L 376.879 425.197 L 391.374 425.197 C 410.053 425.197 425.196 405.006 425.196 380.1 L 425.196 45.097 C 425.196 20.178 410.063 25.77 391.374 25.77 Z " fill="rgb(4,4,4)"/><path d=" M 391.374 0.001 L 33.823 0.001 C 24.837 -0.068 16.204 4.661 9.85 13.133 C 3.496 21.605 -0.051 33.116 0.001 45.097 C 0.001 60.649 14.689 74.191 14.689 74.191 L 212.598 261.02 L 410.508 74.191 C 410.508 74.191 425.196 60.649 425.196 45.097 C 425.248 33.116 421.701 21.605 415.347 13.133 C 408.993 4.661 400.36 -0.068 391.374 0.001 L 391.374 0.001 Z " fill="rgb(245,245,245)"/><path d=" M 398.583 1.057 L 212.598 173.945 L 26.614 1.057 C 11.026 5.45 -0.096 23.854 0.001 45.097 C 0.001 60.649 14.689 74.191 14.689 74.191 L 212.598 261.02 L 410.508 74.191 C 410.508 74.191 425.196 60.649 425.196 45.097 C 425.293 23.854 414.171 5.45 398.583 1.057 L 398.583 1.057 Z " fill="rgb(0,0,0)"/></g></g></svg>