<?xml version="1.0" standalone="no"?><!-- Generator: Gravit.io --><svg xmlns="http://www.w3.org/2000/svg" xmlns:xlink="http://www.w3.org/1999/xlink" style="isolation:isolate" viewBox="0 0 1520.309 425" width="1520.309" height="425"><defs><clipPath id="_clipPath_MixrdqmhiiBPdjy9BA0vQb2OBZRqdewO"><rect width="1520.309" height="425"/></clipPath></defs><g clip-path="url(#_clipPath_MixrdqmhiiBPdjy9BA0vQb2OBZRqdewO)"><g id="Group"><rect x="0" y="19.71" width="550.945" height="385.58" transform="matrix(1,0,0,1,0,0)" fill="rgb(51,51,51)"/><rect x="214.706" y="39.024" width="121.532" height="126.534" transform="matrix(1,0,0,1,0,0)" fill="rgb(235,235,235)"/><rect x="389.76" y="39.024" width="137.145" height="346.952" transform="matrix(1,0,0,1,0,0)" fill="rgb(235,235,235)"/><rect x="24.039" y="39.024" width="137.145" height="346.952" transform="matrix(1,0,0,1,0,0)" fill="rgb(235,235,235)"/></g><path d=" M 597.163 366.227 L 597.163 254.743 L 637.163 254.743 L 637.163 254.743 Q 643.335 254.743 648.999 255.602 L 648.999 255.602 L 648.999 255.602 Q 654.663 256.462 659.507 258.649 L 659.507 258.649 L 659.507 258.649 Q 664.351 260.837 668.335 264.743 L 668.335 264.743 L 668.335 264.743 Q 672.32 268.649 675.132 274.743 L 675.132 274.743 L 675.132 274.743 Q 677.945 280.837 679.468 289.43 L 679.468 289.43 L 679.468 289.43 Q 680.991 298.024 680.991 309.587 L 680.991 309.587 L 680.991 309.587 Q 680.991 321.54 679.585 330.407 L 679.585 330.407 L 679.585 330.407 Q 678.179 339.274 675.523 345.563 L 675.523 345.563 L 675.523 345.563 Q 672.866 351.852 669.038 355.876 L 669.038 355.876 L 669.038 355.876 Q 665.21 359.899 660.327 362.204 L 660.327 362.204 L 660.327 362.204 Q 655.445 364.509 649.624 365.368 L 649.624 365.368 L 649.624 365.368 Q 643.804 366.227 637.163 366.227 L 637.163 366.227 L 597.163 366.227 Z  M 615.913 348.805 L 632.085 348.805 L 632.085 348.805 Q 636.07 348.805 639.82 348.61 L 639.82 348.61 L 639.82 348.61 Q 643.57 348.415 646.812 347.243 L 646.812 347.243 L 646.812 347.243 Q 650.054 346.071 652.749 343.688 L 652.749 343.688 L 652.749 343.688 Q 655.445 341.305 657.359 336.93 L 657.359 336.93 L 657.359 336.93 Q 659.273 332.555 660.327 325.876 L 660.327 325.876 L 660.327 325.876 Q 661.382 319.196 661.382 309.43 L 661.382 309.43 L 661.382 309.43 Q 661.382 300.368 660.366 294.079 L 660.366 294.079 L 660.366 294.079 Q 659.351 287.79 657.476 283.649 L 657.476 283.649 L 657.476 283.649 Q 655.601 279.509 652.984 277.204 L 652.984 277.204 L 652.984 277.204 Q 650.366 274.899 647.085 273.766 L 647.085 273.766 L 647.085 273.766 Q 643.804 272.634 640.015 272.399 L 640.015 272.399 L 640.015 272.399 Q 636.226 272.165 632.085 272.165 L 632.085 272.165 L 615.913 272.165 L 615.913 348.805 Z  M 704.195 366.227 L 704.195 254.743 L 771.226 254.743 L 771.226 272.165 L 722.945 272.165 L 722.945 301.462 L 763.413 301.462 L 763.413 318.571 L 722.945 318.571 L 722.945 348.805 L 772.554 348.805 L 772.554 366.227 L 704.195 366.227 Z  M 846.929 366.227 L 817.476 366.227 L 779.741 254.743 L 801.148 254.743 L 831.616 348.805 L 832.866 348.805 L 863.257 254.743 L 884.663 254.743 L 846.929 366.227 Z  M 898.882 366.227 L 898.882 254.743 L 965.913 254.743 L 965.913 272.165 L 917.632 272.165 L 917.632 301.462 L 958.101 301.462 L 958.101 318.571 L 917.632 318.571 L 917.632 348.805 L 967.241 348.805 L 967.241 366.227 L 898.882 366.227 Z  M 988.648 366.227 L 988.648 254.743 L 1007.398 254.743 L 1007.398 348.805 L 1053.491 348.805 L 1053.491 366.227 L 988.648 366.227 Z  M 1111.773 368.649 L 1111.773 368.649 L 1111.773 368.649 Q 1104.585 368.649 1098.413 367.634 L 1098.413 367.634 L 1098.413 367.634 Q 1092.241 366.618 1087.163 364.079 L 1087.163 364.079 L 1087.163 364.079 Q 1082.085 361.54 1078.14 357.321 L 1078.14 357.321 L 1078.14 357.321 Q 1074.195 353.102 1071.46 346.657 L 1071.46 346.657 L 1071.46 346.657 Q 1068.726 340.212 1067.32 331.384 L 1067.32 331.384 L 1067.32 331.384 Q 1065.913 322.555 1065.913 310.837 L 1065.913 310.837 L 1065.913 310.837 Q 1065.913 293.259 1069.038 281.93 L 1069.038 281.93 L 1069.038 281.93 Q 1072.163 270.602 1078.101 264.079 L 1078.101 264.079 L 1078.101 264.079 Q 1084.038 257.555 1092.554 255.016 L 1092.554 255.016 L 1092.554 255.016 Q 1101.07 252.477 1111.773 252.477 L 1111.773 252.477 L 1111.773 252.477 Q 1118.882 252.477 1125.054 253.571 L 1125.054 253.571 L 1125.054 253.571 Q 1131.226 254.665 1136.304 257.243 L 1136.304 257.243 L 1136.304 257.243 Q 1141.382 259.821 1145.288 264.157 L 1145.288 264.157 L 1145.288 264.157 Q 1149.195 268.493 1151.89 274.977 L 1151.89 274.977 L 1151.89 274.977 Q 1154.585 281.462 1155.991 290.329 L 1155.991 290.329 L 1155.991 290.329 Q 1157.398 299.196 1157.398 310.837 L 1157.398 310.837 L 1157.398 310.837 Q 1157.398 322.477 1155.991 331.305 L 1155.991 331.305 L 1155.991 331.305 Q 1154.585 340.134 1151.89 346.579 L 1151.89 346.579 L 1151.89 346.579 Q 1149.195 353.024 1145.288 357.282 L 1145.288 357.282 L 1145.288 357.282 Q 1141.382 361.54 1136.304 364.04 L 1136.304 364.04 L 1136.304 364.04 Q 1131.226 366.54 1125.054 367.595 L 1125.054 367.595 L 1125.054 367.595 Q 1118.882 368.649 1111.773 368.649 Z  M 1111.773 351.384 L 1111.773 351.384 L 1111.773 351.384 Q 1119.429 351.384 1124.468 349.587 L 1124.468 349.587 L 1124.468 349.587 Q 1129.507 347.79 1132.476 343.22 L 1132.476 343.22 L 1132.476 343.22 Q 1135.445 338.649 1136.656 330.798 L 1136.656 330.798 L 1136.656 330.798 Q 1137.866 322.946 1137.866 310.837 L 1137.866 310.837 L 1137.866 310.837 Q 1137.866 298.649 1136.656 290.759 L 1136.656 290.759 L 1136.656 290.759 Q 1135.445 282.868 1132.476 278.22 L 1132.476 278.22 L 1132.476 278.22 Q 1129.507 273.571 1124.468 271.735 L 1124.468 271.735 L 1124.468 271.735 Q 1119.429 269.899 1111.773 269.899 L 1111.773 269.899 L 1111.773 269.899 Q 1104.116 269.899 1099.038 271.735 L 1099.038 271.735 L 1099.038 271.735 Q 1093.96 273.571 1090.991 278.22 L 1090.991 278.22 L 1090.991 278.22 Q 1088.023 282.868 1086.812 290.759 L 1086.812 290.759 L 1086.812 290.759 Q 1085.601 298.649 1085.601 310.837 L 1085.601 310.837 L 1085.601 310.837 Q 1085.601 322.946 1086.812 330.798 L 1086.812 330.798 L 1086.812 330.798 Q 1088.023 338.649 1090.991 343.22 L 1090.991 343.22 L 1090.991 343.22 Q 1093.96 347.79 1099.038 349.587 L 1099.038 349.587 L 1099.038 349.587 Q 1104.116 351.384 1111.773 351.384 Z  M 1180.601 366.227 L 1180.601 254.743 L 1224.82 254.743 L 1224.82 254.743 Q 1228.413 254.743 1232.085 255.29 L 1232.085 255.29 L 1232.085 255.29 Q 1235.757 255.837 1239.116 257.36 L 1239.116 257.36 L 1239.116 257.36 Q 1242.476 258.884 1245.366 261.462 L 1245.366 261.462 L 1245.366 261.462 Q 1248.257 264.04 1250.445 268.063 L 1250.445 268.063 L 1250.445 268.063 Q 1252.632 272.087 1253.843 277.79 L 1253.843 277.79 L 1253.843 277.79 Q 1255.054 283.493 1255.054 291.149 L 1255.054 291.149 L 1255.054 291.149 Q 1255.054 298.805 1253.726 304.47 L 1253.726 304.47 L 1253.726 304.47 Q 1252.398 310.134 1250.132 314.118 L 1250.132 314.118 L 1250.132 314.118 Q 1247.866 318.102 1244.82 320.602 L 1244.82 320.602 L 1244.82 320.602 Q 1241.773 323.102 1238.335 324.548 L 1238.335 324.548 L 1238.335 324.548 Q 1234.898 325.993 1231.265 326.501 L 1231.265 326.501 L 1231.265 326.501 Q 1227.632 327.009 1224.116 327.009 L 1224.116 327.009 L 1199.351 327.009 L 1199.351 366.227 L 1180.601 366.227 Z  M 1199.351 309.587 L 1221.929 309.587 L 1221.929 309.587 Q 1226.148 309.587 1228.765 308.18 L 1228.765 308.18 L 1228.765 308.18 Q 1231.382 306.774 1232.906 304.274 L 1232.906 304.274 L 1232.906 304.274 Q 1234.429 301.774 1234.976 298.415 L 1234.976 298.415 L 1234.976 298.415 Q 1235.523 295.055 1235.523 291.149 L 1235.523 291.149 L 1235.523 291.149 Q 1235.523 287.321 1234.976 283.884 L 1234.976 283.884 L 1234.976 283.884 Q 1234.429 280.446 1232.906 277.829 L 1232.906 277.829 L 1232.906 277.829 Q 1231.382 275.212 1228.765 273.688 L 1228.765 273.688 L 1228.765 273.688 Q 1226.148 272.165 1221.929 272.165 L 1221.929 272.165 L 1199.351 272.165 L 1199.351 309.587 Z  M 1275.523 366.227 L 1275.523 254.743 L 1342.554 254.743 L 1342.554 272.165 L 1294.273 272.165 L 1294.273 301.462 L 1334.741 301.462 L 1334.741 318.571 L 1294.273 318.571 L 1294.273 348.805 L 1343.882 348.805 L 1343.882 366.227 L 1275.523 366.227 Z  M 1365.288 366.227 L 1365.288 254.743 L 1406.773 254.743 L 1406.773 254.743 Q 1411.226 254.743 1415.484 255.329 L 1415.484 255.329 L 1415.484 255.329 Q 1419.741 255.915 1423.531 257.399 L 1423.531 257.399 L 1423.531 257.399 Q 1427.32 258.884 1430.445 261.423 L 1430.445 261.423 L 1430.445 261.423 Q 1433.57 263.962 1435.874 267.946 L 1435.874 267.946 L 1435.874 267.946 Q 1438.179 271.93 1439.429 277.477 L 1439.429 277.477 L 1439.429 277.477 Q 1440.679 283.024 1440.679 290.524 L 1440.679 290.524 L 1440.679 290.524 Q 1440.679 295.524 1439.859 299.47 L 1439.859 299.47 L 1439.859 299.47 Q 1439.038 303.415 1437.671 306.462 L 1437.671 306.462 L 1437.671 306.462 Q 1436.304 309.509 1434.546 311.774 L 1434.546 311.774 L 1434.546 311.774 Q 1432.788 314.04 1430.991 315.68 L 1430.991 315.68 L 1430.991 315.68 Q 1426.695 319.43 1421.304 320.915 L 1421.304 320.915 L 1421.304 321.071 L 1444.82 366.227 L 1423.413 366.227 L 1402.554 325.29 L 1384.038 325.29 L 1384.038 366.227 L 1365.288 366.227 Z  M 1384.038 307.634 L 1406.616 307.634 L 1406.616 307.634 Q 1421.304 307.634 1421.304 289.43 L 1421.304 289.43 L 1421.304 289.43 Q 1421.304 284.665 1420.249 281.345 L 1420.249 281.345 L 1420.249 281.345 Q 1419.195 278.024 1417.202 275.993 L 1417.202 275.993 L 1417.202 275.993 Q 1415.21 273.962 1412.398 273.063 L 1412.398 273.063 L 1412.398 273.063 Q 1409.585 272.165 1406.148 272.165 L 1406.148 272.165 L 1384.038 272.165 L 1384.038 307.634 Z  M 597.163 166.227 L 597.163 54.743 L 629.687 54.743 L 650.327 121.93 L 650.953 121.93 L 672.296 54.743 L 704.273 54.743 L 704.273 166.227 L 685.523 166.227 L 685.523 72.165 L 685.054 72.165 L 682.945 79.196 L 682.945 79.196 Q 682.085 82.165 681.07 85.407 L 681.07 85.407 L 681.07 85.407 Q 680.054 88.649 679.273 90.993 L 679.273 90.993 L 664.898 135.993 L 636.851 135.993 L 622.163 90.68 L 622.163 90.68 Q 621.382 88.337 620.366 85.173 L 620.366 85.173 L 620.366 85.173 Q 619.351 82.009 618.491 79.118 L 618.491 79.118 L 618.491 79.118 Q 617.476 75.759 616.382 72.165 L 616.382 72.165 L 615.913 72.165 L 615.913 166.227 L 597.163 166.227 Z  M 773.257 168.649 L 773.257 168.649 L 773.257 168.649 Q 766.07 168.649 759.898 167.634 L 759.898 167.634 L 759.898 167.634 Q 753.726 166.618 748.648 164.079 L 748.648 164.079 L 748.648 164.079 Q 743.57 161.54 739.624 157.321 L 739.624 157.321 L 739.624 157.321 Q 735.679 153.102 732.945 146.657 L 732.945 146.657 L 732.945 146.657 Q 730.21 140.212 728.804 131.384 L 728.804 131.384 L 728.804 131.384 Q 727.398 122.555 727.398 110.837 L 727.398 110.837 L 727.398 110.837 Q 727.398 93.259 730.523 81.93 L 730.523 81.93 L 730.523 81.93 Q 733.648 70.602 739.585 64.079 L 739.585 64.079 L 739.585 64.079 Q 745.523 57.555 754.038 55.016 L 754.038 55.016 L 754.038 55.016 Q 762.554 52.477 773.257 52.477 L 773.257 52.477 L 773.257 52.477 Q 780.366 52.477 786.538 53.571 L 786.538 53.571 L 786.538 53.571 Q 792.71 54.665 797.788 57.243 L 797.788 57.243 L 797.788 57.243 Q 802.866 59.821 806.773 64.157 L 806.773 64.157 L 806.773 64.157 Q 810.679 68.493 813.374 74.977 L 813.374 74.977 L 813.374 74.977 Q 816.07 81.462 817.476 90.329 L 817.476 90.329 L 817.476 90.329 Q 818.882 99.196 818.882 110.837 L 818.882 110.837 L 818.882 110.837 Q 818.882 122.477 817.476 131.305 L 817.476 131.305 L 817.476 131.305 Q 816.07 140.134 813.374 146.579 L 813.374 146.579 L 813.374 146.579 Q 810.679 153.024 806.773 157.282 L 806.773 157.282 L 806.773 157.282 Q 802.866 161.54 797.788 164.04 L 797.788 164.04 L 797.788 164.04 Q 792.71 166.54 786.538 167.595 L 786.538 167.595 L 786.538 167.595 Q 780.366 168.649 773.257 168.649 Z  M 773.257 151.384 L 773.257 151.384 L 773.257 151.384 Q 780.913 151.384 785.952 149.587 L 785.952 149.587 L 785.952 149.587 Q 790.991 147.79 793.96 143.22 L 793.96 143.22 L 793.96 143.22 Q 796.929 138.649 798.14 130.798 L 798.14 130.798 L 798.14 130.798 Q 799.351 122.946 799.351 110.837 L 799.351 110.837 L 799.351 110.837 Q 799.351 98.649 798.14 90.759 L 798.14 90.759 L 798.14 90.759 Q 796.929 82.868 793.96 78.22 L 793.96 78.22 L 793.96 78.22 Q 790.991 73.571 785.952 71.735 L 785.952 71.735 L 785.952 71.735 Q 780.913 69.899 773.257 69.899 L 773.257 69.899 L 773.257 69.899 Q 765.601 69.899 760.523 71.735 L 760.523 71.735 L 760.523 71.735 Q 755.445 73.571 752.476 78.22 L 752.476 78.22 L 752.476 78.22 Q 749.507 82.868 748.296 90.759 L 748.296 90.759 L 748.296 90.759 Q 747.085 98.649 747.085 110.837 L 747.085 110.837 L 747.085 110.837 Q 747.085 122.946 748.296 130.798 L 748.296 130.798 L 748.296 130.798 Q 749.507 138.649 752.476 143.22 L 752.476 143.22 L 752.476 143.22 Q 755.445 147.79 760.523 149.587 L 760.523 149.587 L 760.523 149.587 Q 765.601 151.384 773.257 151.384 Z  M 842.085 166.227 L 842.085 54.743 L 883.57 54.743 L 883.57 54.743 Q 888.023 54.743 892.281 55.329 L 892.281 55.329 L 892.281 55.329 Q 896.538 55.915 900.327 57.399 L 900.327 57.399 L 900.327 57.399 Q 904.116 58.884 907.241 61.423 L 907.241 61.423 L 907.241 61.423 Q 910.366 63.962 912.671 67.946 L 912.671 67.946 L 912.671 67.946 Q 914.976 71.93 916.226 77.477 L 916.226 77.477 L 916.226 77.477 Q 917.476 83.024 917.476 90.524 L 917.476 90.524 L 917.476 90.524 Q 917.476 95.524 916.656 99.47 L 916.656 99.47 L 916.656 99.47 Q 915.835 103.415 914.468 106.462 L 914.468 106.462 L 914.468 106.462 Q 913.101 109.509 911.343 111.774 L 911.343 111.774 L 911.343 111.774 Q 909.585 114.04 907.788 115.68 L 907.788 115.68 L 907.788 115.68 Q 903.491 119.43 898.101 120.915 L 898.101 120.915 L 898.101 121.071 L 921.616 166.227 L 900.21 166.227 L 879.351 125.29 L 860.835 125.29 L 860.835 166.227 L 842.085 166.227 Z  M 860.835 107.634 L 883.413 107.634 L 883.413 107.634 Q 898.101 107.634 898.101 89.43 L 898.101 89.43 L 898.101 89.43 Q 898.101 84.665 897.046 81.345 L 897.046 81.345 L 897.046 81.345 Q 895.991 78.024 893.999 75.993 L 893.999 75.993 L 893.999 75.993 Q 892.007 73.962 889.195 73.063 L 889.195 73.063 L 889.195 73.063 Q 886.382 72.165 882.945 72.165 L 882.945 72.165 L 860.835 72.165 L 860.835 107.634 Z  M 942.476 166.227 L 942.476 54.743 L 973.57 54.743 L 1014.195 148.805 L 1014.586 148.805 L 1014.586 148.805 Q 1014.508 145.993 1014.429 143.102 L 1014.429 143.102 L 1014.429 143.102 Q 1014.351 140.602 1014.351 137.712 L 1014.351 137.712 L 1014.351 137.712 Q 1014.351 134.821 1014.351 132.165 L 1014.351 132.165 L 1014.351 54.743 L 1032.945 54.743 L 1032.945 166.227 L 1002.521 166.227 L 968.108 87.79 L 968.108 87.79 Q 966.701 84.509 965.449 81.696 L 965.449 81.696 L 965.449 81.696 Q 964.198 78.884 963.338 76.774 L 963.338 76.774 L 963.338 76.774 Q 962.243 74.274 961.382 72.165 L 961.382 72.165 L 961.07 72.165 L 961.07 166.227 L 942.476 166.227 Z  M 1061.304 166.227 L 1061.304 54.743 L 1080.054 54.743 L 1080.054 166.227 L 1061.304 166.227 Z  M 1108.491 166.227 L 1108.491 54.743 L 1139.585 54.743 L 1180.21 148.805 L 1180.602 148.805 L 1180.602 148.805 Q 1180.523 145.993 1180.445 143.102 L 1180.445 143.102 L 1180.445 143.102 Q 1180.366 140.602 1180.366 137.712 L 1180.366 137.712 L 1180.366 137.712 Q 1180.366 134.821 1180.366 132.165 L 1180.366 132.165 L 1180.366 54.743 L 1198.96 54.743 L 1198.96 166.227 L 1168.537 166.227 L 1134.124 87.79 L 1134.124 87.79 Q 1132.716 84.509 1131.465 81.696 L 1131.465 81.696 L 1131.465 81.696 Q 1130.214 78.884 1129.353 76.774 L 1129.353 76.774 L 1129.353 76.774 Q 1128.258 74.274 1127.398 72.165 L 1127.398 72.165 L 1127.085 72.165 L 1127.085 166.227 L 1108.491 166.227 Z  M 1222.085 109.43 L 1222.085 109.43 L 1222.085 109.43 Q 1222.085 93.415 1225.562 82.516 L 1225.562 82.516 L 1225.562 82.516 Q 1229.038 71.618 1235.484 64.938 L 1235.484 64.938 L 1235.484 64.938 Q 1241.929 58.259 1250.991 55.368 L 1250.991 55.368 L 1250.991 55.368 Q 1260.054 52.477 1271.304 52.477 L 1271.304 52.477 L 1271.304 52.477 Q 1278.882 52.477 1284.859 53.259 L 1284.859 53.259 L 1284.859 53.259 Q 1290.835 54.04 1295.132 54.977 L 1295.132 54.977 L 1295.132 54.977 Q 1300.054 56.071 1303.96 57.399 L 1303.96 57.399 L 1303.96 71.54 L 1303.96 71.54 Q 1299.741 71.071 1294.898 70.759 L 1294.898 70.759 L 1294.898 70.759 Q 1290.757 70.446 1285.445 70.173 L 1285.445 70.173 L 1285.445 70.173 Q 1280.132 69.899 1274.507 69.899 L 1274.507 69.899 L 1274.507 69.899 Q 1264.741 69.899 1258.335 71.97 L 1258.335 71.97 L 1258.335 71.97 Q 1251.929 74.04 1248.179 78.727 L 1248.179 78.727 L 1248.179 78.727 Q 1244.429 83.415 1242.906 90.954 L 1242.906 90.954 L 1242.906 90.954 Q 1241.382 98.493 1241.382 109.43 L 1241.382 109.43 L 1241.382 109.43 Q 1241.382 120.602 1242.984 128.532 L 1242.984 128.532 L 1242.984 128.532 Q 1244.585 136.462 1248.257 141.54 L 1248.257 141.54 L 1248.257 141.54 Q 1251.929 146.618 1257.945 149.001 L 1257.945 149.001 L 1257.945 149.001 Q 1263.96 151.384 1272.788 151.384 L 1272.788 151.384 L 1272.788 151.384 Q 1276.616 151.384 1279.741 151.149 L 1279.741 151.149 L 1279.741 151.149 Q 1282.866 150.915 1285.054 150.524 L 1285.054 150.524 L 1285.054 150.524 Q 1287.632 150.134 1289.585 149.587 L 1289.585 149.587 L 1289.585 120.915 L 1269.273 120.915 L 1269.273 103.805 L 1308.179 103.805 L 1308.179 160.915 L 1308.179 160.915 Q 1303.57 163.102 1298.101 164.821 L 1298.101 164.821 L 1298.101 164.821 Q 1293.413 166.305 1287.046 167.477 L 1287.046 167.477 L 1287.046 167.477 Q 1280.679 168.649 1273.257 168.649 L 1273.257 168.649 L 1273.257 168.649 Q 1261.148 168.649 1251.656 165.915 L 1251.656 165.915 L 1251.656 165.915 Q 1242.163 163.18 1235.601 156.384 L 1235.601 156.384 L 1235.601 156.384 Q 1229.038 149.587 1225.562 138.18 L 1225.562 138.18 L 1225.562 138.18 Q 1222.085 126.774 1222.085 109.43 Z " fill-rule="evenodd" fill="rgb(51,51,51)"/></g></svg>