<?xml version="1.0" standalone="no"?><!-- Generator: Gravit.io --><svg xmlns="http://www.w3.org/2000/svg" xmlns:xlink="http://www.w3.org/1999/xlink" style="isolation:isolate" viewBox="0 0 759 596" width="759" height="596"><defs><clipPath id="_clipPath_jfRkt38E4zei7UBDA13fXyxxM9L311dn"><rect width="759" height="596"/></clipPath></defs><g clip-path="url(#_clipPath_jfRkt38E4zei7UBDA13fXyxxM9L311dn)"><clipPath id="_clipPath_B3gesDibB5rRyB6jPShnK6sTGpO0b9Eh"><rect x="0" y="0" width="759" height="596" transform="matrix(1,0,0,1,0,0)" fill="rgb(255,255,255)"/></clipPath><g clip-path="url(#_clipPath_B3gesDibB5rRyB6jPShnK6sTGpO0b9Eh)"><g id="Group"><rect x="0" y="0" width="759" height="596" transform="matrix(1,0,0,1,0,0)" fill="rgb(145,145,145)"/><clipPath id="_clipPath_FmGdFvt0NkxkUTYa1M7pJ5XqY6ha2pf0"><rect x="0" y="0" width="759" height="596" transform="matrix(1,0,0,1,0,0)" fill="rgb(255,255,255)"/></clipPath><g clip-path="url(#_clipPath_FmGdFvt0NkxkUTYa1M7pJ5XqY6ha2pf0)"><g id="Group"><g id="Group"><g id="Group"><rect x="-176" y="-114" width="2301.717" height="1127" transform="matrix(1,0,0,1,0,0)" fill="rgb(51,51,51)"/><path d=" M 59 49 L 239 49 L 239 554 L 144 554 L 59 554 L 59 49 Z " fill="rgb(235,235,235)"/><path d=" M 299.5 49 L 459.5 49 L 459.5 219 L 299.5 219 L 299.5 49 Z " fill="rgb(235,235,235)"/><path d=" M 518 49 L 698 49 L 698 554 L 518 554 L 518 49 Z " fill="rgb(235,235,235)"/></g></g></g></g></g></g></g></svg>